<?xml version="1.0" standalone="no"?>
<?xml-stylesheet href="light.css" type="text/css"?>
<!DOCTYPE svg PUBLIC "-//W3C//DTD SVG 1.1//EN" "http://www.w3.org/Graphics/SVG/1.1/DTD/svg11.dtd">
<svg xmlns="http://www.w3.org/2000/svg" version="1.1" viewBox="0 0 1000 1000"><g transform="translate(397.8991394042969,307.1428527832031) scale(0.5)"><g><path class="link" d="M162.5587497842188,-419.6125032319601L155.32808396138705,-339.1214403242454C148.0974181385553,-258.63037741653073,133.6360864928918,-97.64825160110139,157.07013480234713,-83.13850318732415C180.50418311180246,-68.6287547735469,241.83361137637658,-200.59138376142175,272.49832550866364,-266.57269825535917L303.16303964095073,-332.5540127492966"></path><path class="link" d="M162.5587497842188,-419.6125032319601L149.01218730220057,-340.9351588759676C135.46562482018237,-262.25781451997506,108.37249985614592,-104.90312580799002,81.27937489210944,-52.45156290399501C54.18624992807298,0,27.093124964036488,-52.45156290399501,2.3684757858670005e-15,-104.90312580799002C-27.09312496403648,-157.35468871198503,-54.186249928072954,-209.80625161598005,-81.27937489210943,-262.25781451997506C-108.37249985614591,-314.70937742397007,-135.4656248201824,-367.1609403279651,-149.01218730220063,-393.38672177996256L-162.55874978421886,-419.6125032319601"></path><path class="link" d="M303.16303964095073,-332.5540127492966L277.5038407446128,-262.0095681900984C251.8446418482749,-191.46512363090017,200.52624405559905,-50.37623451250374,217.13631763373692,-28.380942404194684C233.74639121187485,-6.385650295885625,318.2849361608265,-103.48395519766393,360.5542086353023,-152.03310764855308L402.8234811097781,-200.58226009944224"></path><path class="link" d="M303.16303964095073,-332.5540127492966L259.7766769853932,-258.69578697466176C216.39031432983555,-184.83756120002695,129.61758901872042,-37.12110965075734,4.410352523101021,11.384432181044543C-120.79688397251839,59.889974012846416,-284.438631652642,9.184606127180558,-366.2595054927038,-16.168077815652374L-448.08037933276563,-41.52076175848531"></path><path class="link" d="M402.8234811097781,-200.58226009944224L363.5733198788818,-145.96991491957786C324.3231586479854,-91.35756973971348,245.82283618619275,17.86712062001527,253.36565255669066,44.377370343508C260.90846892718855,70.88762006700073,354.49442412997706,14.683429154257405,401.2874017313713,-13.418666302114248L448.0803793327655,-41.520761758485904"></path><path class="link" d="M402.8234811097781,-200.58226009944224L363.25542738086097,-142.53930851768362C323.68737365194386,-84.49635693592502,244.55126619410967,31.589546227592205,249.55094258044141,85.54464716623879C254.55061896677316,139.49974810488538,343.6860791972709,131.32404681866134,388.25380931251976,127.23619617554932L432.8215394277686,123.1483455324373"></path><path class="link" d="M402.8234811097781,-200.58226009944224L361.719723481868,-139.45519933355388C320.615965853958,-78.32813856766552,238.40845059813793,43.9259829641112,231.12249579252625,122.55395737579579C223.8365409869145,201.18193178748038,291.4721466315112,236.18375907907284,325.28994945380947,253.68467272486907L359.1077522761078,271.1855863706653"></path><path class="link" d="M402.8234811097781,-200.58226009944224L359.173613503091,-137.13411340214427C315.5237458964039,-73.68596670484631,228.22401068302983,53.210326689749614,200.56917604720184,150.40698855271103C172.91434141137384,247.60365041567243,204.90440735309207,315.1006807469994,220.89944032395115,348.8491959126629L236.89447329481024,382.5977110783263"></path><path class="link" d="M448.0803793327655,-41.520761758485904L401.2874017313713,-13.418666302114248C354.49442412997706,14.683429154257402,260.90846892718855,70.8876200670007,253.36565255669066,44.377370343507984C245.82283618619275,17.86712062001526,324.3231586479854,-91.35756973971348,363.5733198788817,-145.96991491957786L402.8234811097781,-200.58226009944224"></path><path class="link" d="M448.0803793327655,-41.520761758485904L383.5602379721517,-10.104885086677646C319.0400966115377,21.31099158513061,189.99981389030992,84.14274492874712,40.63968744605473,84.1427449287472C-108.72043899820046,84.14274492874732,-278.40040916548304,21.31099158513101,-363.24039424912434,-10.104885086677145L-448.08037933276563,-41.5207617584853"></path><path class="link" d="M432.8215394277686,123.1483455324373L388.2538093125197,127.23619617554932C343.6860791972709,131.32404681866134,254.55061896677316,139.49974810488538,249.55094258044141,85.54464716623879C244.55126619410967,31.589546227592205,323.68737365194386,-84.49635693592502,363.25542738086097,-142.53930851768362L402.8234811097781,-200.58226009944224"></path><path class="link" d="M432.8215394277686,123.1483455324373L370.52664555330006,130.54997739098593C308.2317516788316,137.95160924953453,183.6419639298945,152.75487296663178,36.824977469805475,125.31002175147802C-109.99200899028354,97.86517053632424,-279.0361941615246,28.17220438891948,-363.5582867471451,-6.674278684782911L-448.08037933276563,-41.5207617584853"></path><path class="link" d="M359.1077522761078,271.1855863706653L307.8806781926106,260.4290603421999C256.65360410911336,249.67253431373447,154.19945594211896,228.15948225680367,22.21124065813956,203.48660878376572C-109.77697462583984,178.8137353107277,-271.29925702680424,150.98104042158255,-352.06039822728644,137.06469297700997L-432.8215394277686,123.1483455324374"></path><path class="link" d="M236.89447329481024,382.5977110783263L214.22993619702777,362.24336580760445C191.56539909924535,341.8890205368827,146.2363249036804,301.18032999543897,120.5351265241215,311.13702729201054C94.83392814456256,321.0937245885821,88.76060558100961,381.715809723169,85.72394429923315,412.0268522904624L82.68728301745668,442.3378948577558"></path><path class="link" d="M82.68728301745666,442.3378948577558L79.06599104272757,413.2714394525338C75.44469906799849,384.2049840473119,68.2021151185403,326.07207323686794,40.63968744605478,326.07207323686794C13.077259773569244,326.07207323686794,-34.805011621943656,384.2049840473119,-58.7461473197001,413.2714394525339L-82.68728301745655,442.3378948577558"></path><path class="link" d="M82.68728301745666,442.3378948577558L75.8533412452827,412.0268522904624C69.01939947310876,381.715809723169,55.351515928760854,321.0937245885821,2.087889876716384,311.13702729201054C-51.175736175328076,301.18032999543897,-144.0351047350691,341.8890205368827,-190.4647890149396,362.2433658076045L-236.89447329481013,382.59771107832637"></path><path class="link" d="M82.68728301745666,442.3378948577558L71.77152736751275,406.62165717492303C60.855771717568814,370.9054194920903,39.02426041768097,299.4729441264247,-46.89387665652324,246.27468590553835C-132.81201373072744,193.07642768465192,-282.816776579248,158.11238660854465,-357.81915800350833,140.63036607049102L-432.8215394277686,123.1483455324374"></path><path class="link" d="M82.68728301745666,442.3378948577558L73.30723126650567,409.7057663590528C63.92717951555469,377.07363786034983,45.16707601365272,311.8093808629437,-28.465429868608027,283.2839961150953C-102.09793575086876,254.7586113672469,-230.60284401348827,262.97209886895615,-294.855298144798,267.0788426198108L-359.10775227610776,271.1855863706654"></path><path class="link"></path><path class="link" d="M82.68728301745666,442.3378948577558L72.3964869158042,399.8772695575922C62.10569081415176,357.4166442574287,41.52409861084685,272.49539365710143,-39.39436207702562,165.3420344975685C-120.31282276489809,58.18867533803552,-261.5681519373381,-71.19679238070322,-332.1958165235581,-135.88952624007257L-402.82348110977813,-200.58226009944195"></path><path class="link" d="M-82.68728301745655,442.3378948577558L-69.8038069519964,403.1910507730288C-56.92033088653625,364.0442066883018,-31.153378755615947,285.75051851884785,-92.05222814150079,205.10740908280764C-152.95107752738565,124.46429964676746,-300.5157284300756,41.471768944141076,-374.2980538814206,-0.024496407172115653L-448.08037933276563,-41.52076175848531"></path><path class="link" d="M-236.89447329481013,382.59771107832637L-201.52244864723593,352.16297712809956C-166.15042399966168,321.7282431778726,-95.40637470451327,260.85877527741894,-130.60402571083918,190.17236313795027C-165.80167671716512,119.48595099848167,-306.94102802496536,38.98259461999819,-377.51070367886547,-1.2690835692435602L-448.08037933276563,-41.52076175848531"></path><path class="link" d="M-359.10775227610776,271.1855863706654L-294.855298144798,267.0788426198108C-230.60284401348827,262.97209886895615,-102.09793575086876,254.7586113672469,-28.465429868608027,283.28399611509536C45.16707601365272,311.8093808629437,63.92717951555469,377.07363786034983,73.30723126650567,409.7057663590528L82.68728301745666,442.3378948577558"></path><path class="link" d="M-359.10775227610776,271.1855863706654L-304.97010573078205,253.6846727248692C-250.83245918545637,236.18375907907293,-142.55716609480498,201.18193178748047,-149.84312090041672,122.5539573757959C-157.12907570602843,43.925982964111334,-279.9762784079033,-78.3281385676653,-341.39987975884065,-139.45519933355365L-402.82348110977813,-200.58226009944195"></path><path class="link" d="M-432.8215394277686,123.1483455324374L-357.81915800350833,140.63036607049102C-282.816776579248,158.11238660854465,-132.81201373072744,193.07642768465192,-46.89387665652322,246.27468590553835C39.024260417680985,299.4729441264247,60.855771717568835,370.9054194920903,71.77152736751276,406.6216571749231L82.68728301745668,442.3378948577558"></path><path class="link" d="M-432.8215394277686,123.1483455324374L-368.8768176358046,130.54997739098602C-304.9320958438406,137.9516092495346,-177.04265225991264,152.75487296663184,-179.58579224407882,125.31002175147806C-182.12893222824496,97.86517053632427,-315.1046557805053,28.172204388919482,-381.5925175566354,-6.674278684782912L-448.08037933276563,-41.52076175848531"></path></g><g><text class="node module-1" dy="0.31em" transform="rotate(-68.82352941176471)translate(460,0)" style="text-anchor: start;">file</text><text class="node module-1" dy="0.31em" transform="rotate(-47.64705882352941)translate(460,0)" style="text-anchor: start;">function</text><text class="node module-1" dy="0.31em" transform="rotate(-26.470588235294116)translate(460,0)" style="text-anchor: start;">statement</text><text class="node module-1" dy="0.31em" transform="rotate(-5.294117647058826)translate(460,0)" style="text-anchor: start;">iteration</text><text class="node module-1" dy="0.31em" transform="rotate(15.882352941176478)translate(460,0)" style="text-anchor: start;">selection</text><text class="node module-1" dy="0.31em" transform="rotate(37.05882352941177)translate(460,0)" style="text-anchor: start;">delegation</text><text class="node module-1" dy="0.31em" transform="rotate(58.235294117647044)translate(460,0)" style="text-anchor: start;">assignment</text><text class="node module-1" dy="0.31em" transform="rotate(79.41176470588235)translate(460,0)" style="text-anchor: start;">expression</text><text class="node module-1" dy="0.31em" transform="rotate(100.58823529411765)translate(460,0)rotate(180)" style="text-anchor: end;">value</text><text class="node module-1" dy="0.31em" transform="rotate(121.76470588235296)translate(460,0)rotate(180)" style="text-anchor: end;">cell</text><text class="node module-1" dy="0.31em" transform="rotate(142.94117647058826)translate(460,0)rotate(180)" style="text-anchor: end;">unary</text><text class="node module-1" dy="0.31em" transform="rotate(164.11764705882354)translate(460,0)rotate(180)" style="text-anchor: end;">application</text><text class="node module-1" dy="0.31em" transform="rotate(185.29411764705878)translate(460,0)rotate(180)" style="text-anchor: end;">ID</text><text class="node module-1" dy="0.31em" transform="rotate(206.4705882352941)translate(460,0)rotate(180)" style="text-anchor: end;">OPERATOR</text><text class="node module-2" dy="0.31em" transform="rotate(248.8235294117647)translate(460,0)rotate(180)" style="text-anchor: end;">EOF</text></g></g></svg>